<svg id="Layer_1" data-name="Layer 1" xmlns="http://www.w3.org/2000/svg" viewBox="0 0 512 512"><defs><style>.cls-1{fill:#727272;}</style></defs><title>church-handdrawn</title><path class="cls-1" d="M156.42,435.22c.8-4.63,1.52-9.43,1.93-14.33.71-8.69,1.26-17.49,1.71-26.28l.49-9.42a30.94,30.94,0,0,0-1.19-10.39,29,29,0,0,0-13-16.68,31.61,31.61,0,0,0-35.48,1.9A30.46,30.46,0,0,0,99.06,385.3l.34,8.09a20.59,20.59,0,0,1-.24,3.74c-.9,6.64-1.39,13.36-1.65,20.12l-.24,10.17,0,17.47,27.7,0c6.8.07,13.57.28,20.28.8a16.68,16.68,0,0,0,1.9,0c6.74-.3,11.4-2.86,10.26-5.65a8.64,8.64,0,0,0-1.86-2.73A3.65,3.65,0,0,0,156.42,435.22Zm-23.14-5.12c-4.37-.25-8.85-.24-13.29-.24h-7.73V385a18.73,18.73,0,0,1,3.77-11.69l0,0a18.68,18.68,0,0,1,33.63,11.49l-.22,28.52a61.8,61.8,0,0,0,3.26,21.71C148.42,432.41,141.61,430.58,133.29,430.1Z"/><path class="cls-1" d="M408.39,435.22c.8-4.63,1.52-9.43,1.93-14.33.71-8.69,1.26-17.49,1.71-26.28l.49-9.42a30.94,30.94,0,0,0-1.19-10.39,29,29,0,0,0-13-16.68,31.61,31.61,0,0,0-35.48,1.9A30.46,30.46,0,0,0,351,385.3l.34,8.09a20.59,20.59,0,0,1-.24,3.74c-.9,6.64-1.39,13.36-1.65,20.12l-.24,10.17,0,17.47,27.7,0c6.8.07,13.57.28,20.28.8a16.68,16.68,0,0,0,1.9,0c6.74-.3,11.4-2.86,10.26-5.65a8.64,8.64,0,0,0-1.86-2.73A3.65,3.65,0,0,0,408.39,435.22Zm-23.14-5.12c-4.37-.25-8.85-.24-13.29-.24h-7.73V385A18.73,18.73,0,0,1,368,373.36l0,0a18.68,18.68,0,0,1,33.63,11.49l-.22,28.52a61.8,61.8,0,0,0,3.26,21.71C400.39,432.41,393.57,430.58,385.25,430.1Z"/><path class="cls-1" d="M231.76,197.65a25.12,25.12,0,0,1,9.77-18.75,25.41,25.41,0,0,1,20.61-4.78A24.73,24.73,0,0,1,277.3,184.2c3.2,4.67,5.68,8.78,8.29,13.47,1,1.76,3,1.78,3.34-.75a25.75,25.75,0,0,0-1.14-12.26,33,33,0,0,0-15.09-17.73,35.26,35.26,0,0,0-34.24-.28,38.82,38.82,0,0,0-18.91,24.06c-2.74,10.28-.55,22.11,6.35,30.44.78.9,1.4,2.11,2.12,3.06,7.22,11.53,22.94,17.34,36.87,14.34,14.15-2.87,25.86-13.42,31.23-26.71a9,9,0,0,0,.54-1.95c1.58-7.24-1.46-12-4.14-10.82-5.4,2.19-9.19,8.75-14.81,14.9a33.94,33.94,0,0,1-6.43,5.94A25.61,25.61,0,0,1,244.6,221a25.3,25.3,0,0,1-12.89-23.39Z"/><path class="cls-1" d="M496.4,303.95c-2.66-1.28-5.48-2.35-8.27-3.42q-26.91-10.3-53.84-20.56l0,0q-20.93-8-41.85-16-9-3.44-17.86-7.05a33.63,33.63,0,0,0-4.94-1.57l-5.41-2.07V151c5.75,2.81,11.43,5.7,17,8.72.69.37,1.49.69,2.24,1,8,3.42,14.57,3.64,14.41.49-.31-6-9.49-14.54-24.06-22.14-3.13-1.63-6.35-3.19-9.59-4.73v0l-55.75-26L263.28,87.17a10.43,10.43,0,0,0,1.26-3.63,34.52,34.52,0,0,0,.24-5.09q0-16.39,0-32.77h0q0-2.35,0-4.7,5.45,0,10.91,0,3.9,0,7.8.22c2.39.12,4.41-1.15,6.17-3.55.66-.9.62-2.86-.2-3.37a16.61,16.61,0,0,0-3.92-1.93,68.06,68.06,0,0,0-7.19-1.71,83.25,83.25,0,0,0-10.32-1.59c-1.08-.06-2.17-.18-3.25-.32q0-4.27,0-8.54,0-5.46.22-10.92A11.39,11.39,0,0,0,261.52.64c-.9-.93-2.86-.86-3.37.28a28,28,0,0,0-1.93,5.48c-.71,3.33-1.26,6.69-1.71,10.06-.49,3.73-1.05,7.46-1.37,11.2a18.86,18.86,0,0,0-2.67.37,1.7,1.7,0,0,1-1-.24c-7.27-3.61-14.87-.58-22.21-2.7a1.27,1.27,0,0,0-.52,0c-1.84.3-3.12,2.86-2.81,5.65.6,5.3,3.12,9.16,6.59,9.89a17.7,17.7,0,0,0,3.63.24q9,0,17.9,0a56.91,56.91,0,0,0-.13,14.65,3.16,3.16,0,0,1-.24,1.43c-3.59,10.12-.62,20.7-2.67,30.93l-75.55,35.24-33.52,15.4A100.63,100.63,0,0,0,115,154.13c-2.46,2.15-1.44,3.82,2.28,2.66C123,155,129,153,134.87,150.71q7.44-2.91,14.91-6V253.07h0v.14L77.3,280.85h0l-8.71,3.33-15.61,6-17.54,6.68q-9,3.4-18,6.64A29.33,29.33,0,0,0,4.5,312.18c-1.21,1.43-.4,3.21,1.66,3a76.68,76.68,0,0,0,9.7-1.64c5.72-1.42,11.45-3,17.14-4.72l4-1.19V511.75l99.61,0,137.18.17,1.14,0c1.08,0,2.25,0,3.36,0h.19l37.93,0c55,.12,101.58-1.15,142.19-3.55,15.31-.9,14.23-2.86-4.57-3.38-29.17-.8-59.43-1.52-90.31-1.93l-68.59-.71a12.94,12.94,0,0,0,.53-2.76c.8-8.2,1.52-16.72,1.93-25.4.71-15.41,1.26-31,1.71-46.62l1-33.41A47.14,47.14,0,0,0,298,376.48a43,43,0,0,0-9.43-15.67A45,45,0,0,0,260.89,347a44.52,44.52,0,0,0-30.33,7.82,43.94,43.94,0,0,0-17.72,26.29c-1.26,5.32-1.15,11-1.06,15.46q.17,7.16.34,14.35a64.44,64.44,0,0,1-.24,6.63c-1.08,14.13-1.57,28.47-1.78,42.89q-.07,10.82-.14,21.69l0,19.37-12-.12-149.48-1.2q.19-40.32.39-81,.29-57.28.59-114.43l21.87-8.2c9.08-2.85,18.15-5.71,26.8-9.91a9.42,9.42,0,0,1,2.44-.67c18-3,34.41-12.51,52.05-17a7.65,7.65,0,0,0,1.18-.49,8.71,8.71,0,0,0,4.85-4.7l4.23-1.59q0-59.65.06-119.6l40.68-19.34c6.82-3.26,14.59-6.72,21.46-9.75L257,99.51l46.71,22.55.14.07c14.79,7.73,30.22,14.64,45.5,21.76q-.07,59.62-.15,119.7l112.73,43q-.12,28.83-.23,57.51l-.56,62.11c0,3.84,0,8,0,12,.3,42.52,2.86,71.86,5.65,64.67,5.3-13.71,9.16-71.88,9.89-151.92q.08-19.14.16-38.64a189.4,189.4,0,0,1,21.48,9.07,7.6,7.6,0,0,0,1.2.42c4.35,1.34,8.19.06,8.47-2.82C508.55,313.49,504.12,307.68,496.4,303.95ZM253.76,496.41c-7.76-.25-15.7-.24-23.56-.24H225v-105a36.17,36.17,0,0,1,.79-6.93,32.25,32.25,0,0,1,5.89-12.51l0,0a32,32,0,0,1,19.8-12,31.63,31.63,0,0,1,22.7,4.55A32.06,32.06,0,0,1,287.87,383c1.06,4,1.18,7.27,1.11,12.63v14.75L288.74,461a186.66,186.66,0,0,0,3.55,40,10.42,10.42,0,0,0,.4,1.45l-1.87,0C283.43,499.16,270.25,496.95,253.76,496.41Z"/></svg>